<?xml version="1.0" standalone="no"?>
<!DOCTYPE svg PUBLIC "-//W3C//DTD SVG 20010904//EN"
 "http://www.w3.org/TR/2001/REC-SVG-20010904/DTD/svg10.dtd">
<svg version="1.0" xmlns="http://www.w3.org/2000/svg"
 width="192.000000pt" height="192.000000pt" viewBox="0 0 192.000000 192.000000"
 preserveAspectRatio="xMidYMid meet">
<metadata>
Created by potrace 1.14, written by Peter Selinger 2001-2017
</metadata>
<g transform="translate(0.000000,192.000000) scale(0.100000,-0.100000)"
fill="#000000" stroke="none">
<path d="M780 1855 c-371 -76 -663 -380 -720 -749 -21 -135 -6 -318 35 -441
52 -153 161 -306 299 -421 91 -77 246 -150 381 -180 62 -13 290 -13 360 1 277
54 507 229 643 490 18 33 32 68 32 77 0 9 4 19 9 23 5 3 15 31 22 63 7 31 14
64 16 72 2 8 7 63 10 122 16 302 -100 563 -341 764 -91 77 -246 150 -381 180
-60 13 -299 12 -365 -1z m380 -447 c81 -21 172 -97 212 -177 18 -37 23 -63 23
-136 0 -78 -4 -97 -27 -141 -24 -46 -118 -144 -138 -144 -5 0 -21 -5 -37 -12
-47 -19 -53 -19 -213 -21 l-155 -2 1 -130 c0 -71 -3 -132 -8 -135 -4 -3 -45
-6 -90 -5 l-83 0 -2 109 c-1 61 -4 118 -6 128 -3 10 -2 18 1 18 4 0 7 29 7 65
0 36 -2 65 -5 65 -3 0 -3 27 0 60 3 33 3 60 0 60 -3 0 -3 27 0 60 3 33 3 60 0
60 -4 0 -3 65 1 155 1 6 0 33 -2 61 -1 28 1 55 4 60 5 9 483 10 517 2z"/>
<path d="M880 1232 l-56 -3 1 -132 0 -132 146 -2 c127 -1 150 1 177 17 89 55
89 185 -1 233 -32 17 -147 25 -267 19z"/>
</g>
</svg>
